<?xml version="1.0" standalone="no"?>
<!DOCTYPE svg PUBLIC "-//W3C//DTD SVG 20010904//EN"
 "http://www.w3.org/TR/2001/REC-SVG-20010904/DTD/svg10.dtd">
<svg version="1.0" xmlns="http://www.w3.org/2000/svg"
 width="586.000000pt" height="618.000000pt" viewBox="0 0 586.000000 618.000000"
 preserveAspectRatio="xMidYMid meet">

<g transform="translate(0.000000,618.000000) scale(0.100000,-0.100000)"
fill="#000000" stroke="none">
<path d="M3549 5042 c-38 -20 -62 -41 -82 -74 -63 -102 -40 -173 60 -185 82
-9 135 15 215 101 l67 71 38 -22 c21 -12 52 -41 68 -65 27 -39 30 -51 30 -118
-1 -113 -44 -178 -176 -265 -80 -53 -124 -102 -140 -155 -9 -31 -16 -39 -28
-34 -9 3 -59 17 -111 30 -287 74 -656 17 -896 -138 l-70 -45 4 63 c4 57 1 68
-26 111 -57 89 -72 132 -72 215 0 73 1 78 29 97 43 31 68 27 85 -13 13 -32 79
-104 121 -131 11 -7 41 -17 67 -20 45 -7 50 -5 84 29 34 34 36 39 32 87 -6 63
-25 82 -103 110 -51 18 -75 21 -156 16 -162 -8 -209 -46 -209 -167 0 -89 13
-127 70 -214 40 -59 50 -82 50 -115 0 -58 -21 -103 -78 -164 -27 -28 -63 -71
-80 -95 l-31 -43 -563 1 c-350 0 -587 -4 -627 -10 -79 -13 -151 -43 -182 -76
-12 -13 -28 -24 -36 -24 -7 0 -13 -12 -14 -27 -2 -61 -7 -113 -19 -228 -17
-154 -18 -449 -3 -1054 14 -548 11 -527 96 -570 55 -27 116 -30 337 -15 74 5
149 7 167 6 l32 -4 3 -79 3 -79 -91 0 c-86 0 -154 -17 -154 -39 0 -4 -9 -18
-19 -30 -26 -30 -36 -124 -18 -176 11 -35 23 -45 83 -77 73 -39 148 -50 172
-26 9 9 12 9 12 0 0 -7 7 -12 15 -12 9 0 15 9 15 25 0 16 6 25 15 25 9 0 18 6
20 13 4 9 56 11 223 9 205 -3 220 -4 274 -28 31 -13 89 -29 130 -34 98 -13
270 -12 304 0 18 7 29 7 34 1 8 -13 121 -12 137 1 9 7 15 6 19 -6 3 -9 15 -16
25 -16 18 0 19 9 19 143 0 156 12 220 55 292 85 146 375 182 510 63 74 -65
131 -208 166 -411 11 -66 12 -69 50 -84 40 -16 45 -22 30 -38 -12 -14 -68
-155 -76 -192 -3 -18 -28 -68 -54 -111 -69 -116 -78 -139 -57 -160 15 -15 19
-15 50 2 19 10 38 17 43 15 4 -2 8 -65 8 -139 l0 -135 25 -3 c18 -2 37 8 66
36 39 37 42 39 67 25 22 -11 27 -21 27 -53 0 -79 32 -114 76 -85 13 9 41 37
62 64 33 43 45 51 102 67 36 9 139 54 230 99 203 101 321 148 425 171 44 9 91
25 104 35 13 11 30 19 38 19 32 0 93 43 127 89 49 66 75 129 95 225 9 45 18
82 21 82 3 1 29 5 58 9 28 4 52 11 52 17 0 5 -27 80 -61 166 -74 192 -184 509
-199 577 -6 28 -29 147 -51 265 -77 416 -225 929 -334 1156 -127 263 -358 502
-622 641 -63 33 -73 42 -73 65 0 37 40 80 113 124 105 64 164 120 199 191 27
56 32 76 32 146 1 72 -3 89 -29 140 -35 69 -68 100 -153 140 -50 23 -80 30
-150 33 -82 4 -92 3 -143 -24z m152 -53 c19 -10 18 -12 -17 -52 -46 -51 -88
-76 -132 -77 -42 0 -50 20 -25 62 38 65 120 96 174 67z m-955 -358 c49 -22 64
-59 39 -97 -12 -18 -24 -24 -54 -24 -33 0 -47 8 -102 60 -52 49 -61 62 -49 70
25 16 122 11 166 -9z m-498 -816 c1 -1 -9 -27 -23 -58 l-25 -57 -555 0 c-494
0 -558 -2 -580 -16 -14 -9 -22 -20 -19 -25 3 -6 5 -360 4 -789 -1 -625 2 -780
12 -787 13 -8 548 -19 1014 -22 230 -1 232 -1 237 -23 4 -12 1 -26 -5 -29 -23
-14 -156 -20 -643 -30 -269 -5 -516 -12 -549 -15 -66 -7 -142 10 -155 35 -5 9
-12 214 -15 456 -3 242 -9 628 -12 857 l-6 417 28 27 c34 32 82 53 144 65 38
7 1140 2 1148 -6z m-1038 -257 c0 -9 3 -9 12 0 20 20 40 14 36 -10 -3 -19 -10
-22 -50 -24 -46 -2 -67 13 -52 37 8 13 54 11 54 -3z m2124 -47 c9 -14 -4 -41
-19 -41 -18 0 -28 17 -21 35 6 17 32 20 40 6z m-1714 -31 c0 -16 -4 -30 -10
-30 -5 0 -10 14 -10 30 0 17 5 30 10 30 6 0 10 -13 10 -30z m203 4 c-4 -10 -9
-12 -15 -6 -12 12 -1 35 12 27 5 -3 6 -13 3 -21z m101 20 c29 -11 16 -25 -21
-22 -42 3 -59 28 -20 28 14 0 32 -3 41 -6z m-154 -13 c0 -6 -16 -12 -35 -12
-19 -1 -40 -2 -47 -3 -6 -1 -13 4 -15 9 -2 6 19 11 47 13 30 2 50 -1 50 -7z
m346 0 c-4 -5 -27 -9 -52 -9 -28 1 -40 4 -32 9 18 12 91 11 84 0z m-640 -16
c10 -25 -7 -40 -23 -20 -7 11 -13 22 -13 27 0 14 30 9 36 -7z m87 -10 c-4 -15
-56 -12 -61 3 -3 10 5 13 29 10 19 -2 33 -7 32 -13z m-373 -3 c0 -5 13 -7 29
-4 24 3 29 0 35 -24 10 -37 -2 -45 -51 -31 -38 10 -43 15 -43 39 0 18 5 28 15
28 8 0 15 -4 15 -8z m1515 -23 c0 -15 -7 -25 -17 -27 -13 -3 -18 3 -18 21 0
13 3 27 7 31 13 12 28 -1 28 -25z m-1249 -39 c0 -11 -6 -20 -13 -20 -7 0 -13
9 -13 20 0 11 6 20 13 20 7 0 13 -9 13 -20z m208 5 c19 -14 19 -15 -7 -15 -17
0 -27 5 -27 15 0 19 9 19 34 0z m165 -34 c17 -11 8 -39 -14 -47 -21 -9 -24 -4
-18 29 6 29 10 32 32 18z m241 -11 c0 -5 -11 -10 -24 -10 -14 0 -28 5 -31 10
-4 6 7 10 24 10 17 0 31 -4 31 -10z m-155 -10 c3 -5 -3 -10 -14 -10 -12 0 -21
5 -21 10 0 6 6 10 14 10 8 0 18 -4 21 -10z m-660 -35 c0 -15 -9 -19 -47 -20
-45 -2 -48 -1 -48 22 0 20 4 24 20 20 11 -3 22 -1 25 3 9 15 50 -6 50 -25z
m380 25 c3 -5 -1 -10 -10 -10 -9 0 -13 5 -10 10 3 6 8 10 10 10 2 0 7 -4 10
-10z m-394 -140 c20 -11 26 -54 10 -65 -6 -3 -28 0 -50 7 -35 11 -41 17 -41
40 0 25 4 28 31 28 17 0 39 -5 50 -10z m263 -36 c27 -10 18 -22 -19 -26 -22
-2 -35 0 -35 7 0 24 22 31 54 19z m189 -4 c41 9 61 -4 25 -16 -29 -9 -125 -7
-141 3 -7 5 1 10 23 13 19 4 40 3 45 -1 6 -5 27 -4 48 1z m-179 -89 c3 -5 -7
-11 -22 -14 -30 -6 -45 0 -37 14 8 12 52 12 59 0z m166 -3 c24 14 100 16 100
2 0 -5 -13 -10 -29 -10 -15 0 -42 -5 -60 -11 -24 -8 -42 -8 -77 2 -45 13 -45
14 -18 19 16 4 37 1 47 -4 12 -8 23 -7 37 2z m-492 -43 c-2 -14 -7 -26 -13
-26 -5 0 -11 12 -13 26 -2 18 1 25 13 25 12 0 15 -7 13 -25z m59 9 c8 -21 -13
-42 -28 -27 -13 13 -5 43 11 43 6 0 13 -7 17 -16z m281 -36 c-5 -15 -68 -24
-68 -9 0 9 21 16 58 20 8 0 12 -5 10 -11z m95 -3 c8 -18 -11 -31 -25 -17 -11
11 -3 32 12 32 4 0 10 -7 13 -15z m177 -30 c-7 -8 -16 -15 -21 -15 -5 0 -9 7
-9 15 0 9 9 15 21 15 18 0 19 -2 9 -15z m90 -5 c0 -5 -13 -10 -30 -10 -16 0
-30 5 -30 10 0 6 14 10 30 10 17 0 30 -4 30 -10z m-314 -81 c11 -19 -12 -30
-62 -32 -36 -2 -49 2 -49 12 0 8 11 16 24 18 14 2 27 6 30 8 9 9 50 5 57 -6z
m-120 -84 c-3 -32 -14 -42 -22 -21 -3 9 -1 23 6 31 17 20 19 19 16 -10z m-193
-17 c7 -26 1 -38 -19 -38 -8 0 -14 10 -14 23 0 40 24 51 33 15z m-65 -4 c28
-8 28 -25 2 -42 -26 -16 -40 -8 -40 24 0 26 3 27 38 18z m470 -53 c11 -7 11
-9 -2 -14 -20 -8 -48 2 -40 14 7 11 25 11 42 0z m-473 -81 c15 -28 13 -50 -3
-50 -11 0 -43 61 -36 71 10 17 23 9 39 -21z m61 16 c21 -22 18 -46 -6 -43 -28
4 -44 23 -37 41 8 20 24 20 43 2z m304 -48 c0 -10 -4 -18 -10 -18 -5 0 -10 9
-10 19 0 11 -5 23 -10 26 -6 4 -7 11 -4 17 9 14 34 -19 34 -44z m-360 -88 c9
-5 19 -5 28 2 9 8 16 8 24 0 15 -15 2 -42 -20 -42 -10 0 -23 -5 -29 -11 -17
-17 -33 -1 -33 32 0 31 6 35 30 19z m34 -166 c11 -29 7 -46 -10 -40 -9 4 -23
1 -30 -5 -19 -16 -34 -2 -34 32 0 26 3 29 34 29 22 0 36 -6 40 -16z m574 -10
c0 -15 -4 -22 -10 -16 -5 5 -6 16 -2 25 9 23 12 21 12 -9z m-243 -5 c5 -5 -8
-9 -33 -9 -23 0 -42 4 -42 9 0 21 52 21 75 0z m315 6 c14 -16 10 -18 -14 -9
-9 3 -16 10 -16 15 0 14 16 11 30 -6z m-225 -5 c4 -6 -5 -10 -20 -10 -15 0
-24 4 -20 10 3 6 12 10 20 10 8 0 17 -4 20 -10z m345 0 c0 -5 -7 -10 -15 -10
-8 0 -15 5 -15 10 0 6 7 10 15 10 8 0 15 -4 15 -10z m58 -18 c2 -15 -2 -22
-12 -22 -11 0 -16 9 -16 26 0 31 23 28 28 -4z m1064 -69 c-6 -92 -5 -92 -39
-35 -39 62 -40 69 -10 75 52 10 52 10 49 -40z m-533 -68 c-30 -91 -33 -93 -56
-38 -41 96 -42 93 20 93 l54 0 -18 -55z m-1415 16 c7 -11 -3 -41 -14 -41 -11
0 -21 30 -14 41 3 5 9 9 14 9 5 0 11 -4 14 -9z m86 -6 c0 -8 -4 -15 -10 -15
-5 0 -10 7 -10 15 0 8 5 15 10 15 6 0 10 -7 10 -15z m-39 -28 c-13 -13 -31 0
-24 19 4 11 8 12 20 3 9 -8 10 -16 4 -22z m839 -262 c0 -2 -20 -23 -45 -46
-25 -23 -53 -55 -63 -71 l-16 -28 -188 0 -188 0 0 70 0 70 208 3 c114 1 226 3
250 5 23 1 42 0 42 -3z m-602 -220 c6 -3 12 -11 12 -20 0 -23 -92 -21 -113 3
-10 10 -15 21 -12 24 6 5 89 0 113 -7z m162 -4 c0 -14 -87 -23 -110 -11 -11 6
-20 13 -20 15 0 3 29 5 65 5 36 0 65 -4 65 -9z m134 0 c14 -22 -86 -28 -104
-6 -11 13 -5 15 43 15 31 0 58 -4 61 -9z m111 -1 c-3 -5 -21 -10 -40 -10 -19
0 -37 5 -40 10 -4 6 12 10 40 10 28 0 44 -4 40 -10z m51 -35 c-1 -40 -4 -45
-23 -45 -13 0 -23 6 -23 13 0 12 36 77 43 77 2 0 3 -20 3 -45z m-556 -80 c41
-46 83 -84 93 -85 10 0 21 -10 26 -22 11 -28 3 -39 -10 -15 -6 9 -16 17 -23
17 -7 0 -53 32 -102 72 -49 39 -90 72 -92 74 -5 3 22 44 28 43 3 0 39 -38 80
-84z m285 66 c6 -1 3 -6 -5 -11 -22 -14 -66 -12 -79 4 -11 14 8 15 84 7z
m-136 -7 c42 -9 39 -18 -9 -33 -38 -11 -43 -10 -71 13 l-31 26 40 0 c22 0 54
-3 71 -6z m266 -4 c-3 -5 -21 -10 -40 -10 -19 0 -37 5 -40 10 -4 6 12 10 40
10 28 0 44 -4 40 -10z m49 -45 c4 -10 20 -15 54 -15 42 0 50 -3 60 -25 l12
-25 -98 0 -97 1 -16 34 -16 34 41 4 c23 2 44 4 47 5 4 1 9 -5 13 -13z m-123
-32 l21 -33 -81 0 c-69 0 -87 4 -112 22 l-30 22 38 12 c21 7 62 12 91 11 48
-2 55 -5 73 -34z m-401 -38 c10 -13 9 -15 -8 -15 -15 0 -20 5 -16 15 4 8 7 15
9 15 1 0 8 -7 15 -15z m2124 -542 c-25 -19 -28 -9 -8 29 18 32 19 32 22 9 2
-16 -3 -30 -14 -38z m100 -258 c-30 -22 -34 -18 -34 31 l0 46 26 -32 c26 -30
26 -31 8 -45z m199 -53 c6 -8 -42 -67 -48 -60 -3 2 -8 19 -11 36 -6 30 -5 32
24 32 17 0 33 -3 35 -8z"/>
</g>
</svg>
